# xmcd
#
# Track frame offsets:
#	150
#	6362
#	17015
#	29327
#	41822
#	51480
#	85292
#	95387
#	108502
#	129335
#	140480
#	157062
#	169135
#	181022
#	194282
#	208692
#	220227
#	232657
#	245790
#	258775
#	281385
#	290515
#	307487
#	320757
#	337530
#
# Disc length: 4634
#
# Revision: 2
# Processed by: cddbd v1.5.1PL0 Copyright (c) Steve Scherf et al.
# Submitted via: audiograbber 1.83.01
# Normalized: r1:DSETVAR1
#
DISCID=6c121819
DTITLE=Various Artist - Megablues CD4
DYEAR=2001
DGENRE=Blues
TTITLE0=Eric Clapton and Jimmy Page - Choker
TTITLE1=Champion Jack Dupree - Shake Baby Shake
TTITLE2=Jimmy Reed - Big Boss Man
TTITLE3=Elmore James - Shake Your Money Maker
TTITLE4=Jimmy Witherspoon - Kansas City
TTITLE5=Freddy King - Let The Good Times Roll
TTITLE6=Junior Wells - Messin' With The Kid
TTITLE7=Lightnin' Hopkins - Got Me A Louisiana Woman
TTITLE8=Rod Stewart - Bright Light Big City
TTITLE9=John Lee Hooker - Boogie Chillun
TTITLE10=Albert Lee - Crosstown Link
TTITLE11=Homesick James - Whiskey Headed Woman
TTITLE12=Otis Rush - Double Trouble
TTITLE13=Eddie Taylor - Big Town Playboy
TTITLE14=Jimmy Rushing - I Left My Baby
TTITLE15=Big Joe Williams - Baby Left Town
TTITLE16=Billy Boy Arnold - Prisoner's Plea
TTITLE17=Jo-Ann Kelly - Ain't Seen No Whiskey
TTITLE18=Lowell Fulson - My Baby
TTITLE19=Lonnie Brooks - Trading Post
TTITLE20=The All Stars Feat. Jimmy Page - LA Breakdown
TTITLE21=The Savoy Brown Blues Band - Cold Blooded Woman
TTITLE22=Walter Horton - Easy
TTITLE23=Robert Cray - Who's Been Talkin'
TTITLE24=T.S. McPhee - Someone To Love Me
EXTD=
EXTT0=
EXTT1=
EXTT2=
EXTT3=
EXTT4=
EXTT5=
EXTT6=
EXTT7=
EXTT8=
EXTT9=
EXTT10=
EXTT11=
EXTT12=
EXTT13=
EXTT14=
EXTT15=
EXTT16=
EXTT17=
EXTT18=
EXTT19=
EXTT20=
EXTT21=
EXTT22=
EXTT23=
EXTT24=
PLAYORDER=
